<?xml version="1.0" standalone="no"?>
<!DOCTYPE svg PUBLIC "-//W3C//DTD SVG 20010904//EN"
 "http://www.w3.org/TR/2001/REC-SVG-20010904/DTD/svg10.dtd">
<svg version="1.0" xmlns="http://www.w3.org/2000/svg"
 width="1440.000000pt" height="1440.000000pt" viewBox="0 0 1440.000000 1440.000000"
 preserveAspectRatio="xMidYMid meet">

<g transform="translate(0.000000,1440.000000) scale(0.100000,-0.100000)"
fill="#000000" stroke="none">
<path d="M0 7200 l0 -7200 7200 0 7200 0 0 7200 0 7200 -7200 0 -7200 0 0
-7200z m10504 5083 c2 -16 8 -49 11 -75 6 -44 4 -48 -17 -53 -13 -3 -538 -107
-1168 -231 l-1145 -226 -560 5 c-308 4 -555 4 -550 2 6 -3 529 -151 1162 -330
l1153 -325 992 170 c546 93 996 166 1000 162 3 -4 16 -28 27 -54 l20 -48 -22
-5 c-12 -2 -436 -79 -942 -170 -506 -91 -928 -169 -937 -173 -12 -5 247 -130
832 -402 468 -217 850 -398 850 -401 0 -3 -18 -18 -40 -33 l-40 -26 -891 410
-891 410 -1184 370 -1184 369 -779 -337 -778 -337 1574 -3 1574 -2 929 -785
930 -785 807 235 c445 130 816 238 825 241 13 4 20 -6 33 -47 8 -29 12 -56 8
-59 -5 -4 -327 -118 -718 -254 -390 -136 -713 -251 -718 -255 -4 -4 65 -78
153 -165 l159 -158 118 6 c278 15 1146 46 1150 42 3 -3 2 -34 -1 -70 l-7 -64
-57 -6 c-31 -3 -337 -26 -680 -51 l-622 -46 -285 225 -285 226 -457 -20 c-251
-11 -458 -22 -460 -24 -2 -2 295 -239 659 -527 l663 -524 3 -90 3 -90 -83 -83
-84 -82 -1053 -95 c-580 -52 -1056 -96 -1057 -98 -4 -4 -54 -690 -50 -694 1
-2 385 -48 852 -103 l849 -100 72 -72 73 -72 0 -1741 0 -1740 -190 190 -190
190 0 1430 0 1431 -42 41 -43 42 -1049 30 c-577 17 -1050 32 -1052 33 -1 2 47
123 106 271 l109 267 30 277 c17 152 29 278 28 280 -2 1 -200 -18 -442 -43
l-439 -45 -525 30 c-289 17 -527 29 -529 27 -2 -2 -34 -137 -72 -300 l-69
-295 109 -228 108 -228 -26 -8 c-15 -4 -533 -93 -1151 -197 -618 -104 -1125
-191 -1128 -193 -2 -2 -114 -667 -248 -1478 -135 -811 -248 -1486 -251 -1501
-5 -25 -18 -13 -190 177 l-185 205 225 1461 c123 803 227 1463 230 1466 3 3
433 86 957 184 523 98 954 180 956 183 7 7 281 900 278 904 -2 2 -325 90 -719
196 -394 106 -718 195 -721 198 -6 6 721 2888 731 2898 5 4 449 200 986 434
l977 426 693 46 693 45 1140 219 c627 120 1145 218 1152 219 6 1 14 -11 17
-26z"/>
<path d="M5770 10748 c-371 -4 -711 -11 -755 -14 l-80 -6 -318 -1235 c-175
-679 -315 -1239 -310 -1243 4 -4 467 -92 1028 -195 l1020 -187 215 -8 c118 -5
263 -9 321 -9 l107 -1 6 128 c3 70 9 724 12 1455 l6 1327 -288 -2 c-159 -1
-593 -5 -964 -10z m-32 -1363 c49 -21 81 -52 103 -100 46 -100 0 -216 -103
-260 -96 -40 -205 4 -249 100 -73 158 89 326 249 260z"/>
<path d="M7340 10736 c14 -14 428 -342 920 -731 l895 -706 440 7 c241 4 461 9
487 13 l47 6 -842 717 -842 718 -565 0 -565 0 25 -24z"/>
<path d="M7197 10373 c-4 -174 -7 -811 -7 -1415 0 -1039 1 -1098 18 -1098 52
-1 3240 213 3254 218 13 5 -398 337 -1604 1297 -892 710 -1629 1295 -1638
1302 -16 11 -17 -11 -23 -304z"/>
</g>
</svg>
